#define ra_width 8
#define ra_height 13
static unsigned char ra_bits[] = {
   0x01, 0x03, 0x07, 0x0f, 0x1f, 0x3f, 0x7f, 0x3f, 0x1f, 0x0f, 0x07, 0x03,
   0x01 };
