#define corner_lb1_width 8
#define corner_lb1_height 14
static unsigned char corner_lb1_bits[] = {
   0x03, 0x03, 0x03, 0x03, 0x03, 0x03, 0x03, 0x03, 0x07, 0x0f, 0x1f, 0x3f,
   0x7f, 0xff };
