#define corner_rt1_width 8
#define corner_rt1_height 14
static unsigned char corner_rt1_bits[] = {
   0xff, 0xfe, 0xfc, 0xf8, 0xf0, 0xe0, 0xc0, 0xc0, 0xc0, 0xc0, 0xc0, 0xc0,
   0xc0, 0xc0 };
