#define cpus_width 12
#define cpus_height 12
static unsigned char cpus_bits[] = {
   0x90, 0x00, 0x90, 0x00, 0xfe, 0x07, 0xfe, 0x07, 0x06, 0x06, 0x06, 0x06,
   0x07, 0x0e, 0x06, 0x06, 0xfe, 0x07, 0xfe, 0x07, 0x90, 0x00, 0x90, 0x00 };
