#define mems_width 12
#define mems_height 12
static unsigned char mems_bits[] = {
   0x00, 0x00, 0x92, 0x04, 0x92, 0x04, 0xff, 0x0f, 0xff, 0x0f, 0xff, 0x0f,
   0xff, 0x0f, 0xff, 0x0f, 0xff, 0x0f, 0x92, 0x04, 0x92, 0x04, 0x00, 0x00 };
